<?xml version="1.0" encoding="UTF-8" standalone="no"?>
<!DOCTYPE svg PUBLIC "-//W3C//DTD SVG 1.1//EN" "http://www.w3.org/Graphics/SVG/1.1/DTD/svg11.dtd">
<svg width="100%" height="100%" viewBox="0 0 347 193" version="1.1" xmlns="http://www.w3.org/2000/svg" xmlns:xlink="http://www.w3.org/1999/xlink" xml:space="preserve" xmlns:serif="http://www.serif.com/" style="fill-rule:evenodd;clip-rule:evenodd;stroke-linejoin:round;stroke-miterlimit:2;">
    <g transform="matrix(1,0,0,1,-280.264,-56.6626)">
        <g transform="matrix(0.679873,0,0,0.679873,-8792.59,-2594.65)">
            <g transform="matrix(0.255724,0,0,0.255724,11963.4,2484.1)">
                <path d="M6539.77,6480.87L6539.77,6352.87C6545.44,6403.37 6588.28,6442.62 6640.29,6442.62L7094.37,6442.62C7150.19,6442.62 7195.44,6397.42 7195.53,6341.62L7195.53,6317.03L7397.47,6317.03L7397.47,6480.87C7397.47,6571.5 7324,6644.97 7233.37,6644.97L6501.29,6644.97C6479.04,6644.97 6457.83,6640.54 6438.48,6632.52C6497.94,6607.86 6539.77,6549.25 6539.77,6480.87ZM6438.48,5548.21C6457.83,5540.19 6479.04,5535.76 6501.29,5535.76L7233.37,5535.76C7324,5535.76 7397.47,5609.23 7397.47,5699.86L7397.47,5863.7L7195.53,5863.7L7195.53,5839.11C7195.44,5783.31 7150.19,5738.11 7094.37,5738.11C7092.19,5738.11 6867.33,5738.31 6867.33,5738.31L6754.63,5738.21C6698.14,5738.16 6641.38,5738.11 6640.29,5738.11C6588.28,5738.11 6545.43,5777.36 6539.77,5827.86L6539.77,5699.86C6539.77,5631.48 6497.94,5572.87 6438.48,5548.21Z" style="fill:rgb(0,0,51);"/>
            </g>
        </g>
        <g transform="matrix(0.679873,0,0,0.679873,-8792.59,-2594.65)">
            <g transform="matrix(0.0707325,0,0,0.0707325,12792.6,3337.93)">
                <path d="M11049.1,11952.7L8402.32,11952.7C8074.66,11952.7 7809.04,11687.1 7809.04,11359.4L7809.04,10767.1L8539.12,10767.1L8539.12,10856C8539.45,11057.8 8703.07,11221.2 8904.86,11221.2L10546.5,11221.2C10748.3,11221.2 10911.9,11057.8 10912.3,10856L10912.3,10678.2C10911.9,10476.5 10748.3,10313.1 10546.5,10313.1C10542.6,10313.1 8402.32,10313.8 8402.32,10313.8C8074.66,10313.8 7809.04,10048.1 7809.04,9720.48L7809.04,8535.84C7809.04,8208.18 8074.66,7942.56 8402.32,7942.56L11049.1,7942.56C11376.7,7942.56 11642.3,8208.18 11642.3,8535.84L11642.3,9128.16L10912.3,9128.16L10912.3,9039.26C10911.9,8837.53 10748.3,8674.11 10546.5,8674.11L8904.86,8674.11C8703.07,8674.11 8539.45,8837.53 8539.12,9039.26L8539.12,9217.06C8539.45,9418.78 8703.07,9582.21 8904.86,9582.21C8912.74,9582.21 9725.69,9581.47 9725.69,9581.47C9725.69,9581.47 11049.1,9581.47 11049.1,9581.47L11049.1,9581.53C11376.7,9581.53 11642.3,9847.15 11642.3,10174.8L11642.3,11359.4C11642.3,11687.1 11376.7,11952.7 11049.1,11952.7Z" style="fill:rgb(95,106,149);"/>
            </g>
        </g>
    </g>
</svg>
